<?xml version="1.0" encoding="UTF-8" standalone="no"?>
<!-- Created with Inkscape (http://www.inkscape.org/) -->

<svg
   width="177mm"
   height="27mm"
   viewBox="0 0 177 27"
   version="1.1"
   id="svg1"
   xml:space="preserve"
   sodipodi:docname="felrod-logo.svg"
   inkscape:version="1.3.2 (091e20e, 2023-11-25, custom)"
   xmlns:inkscape="http://www.inkscape.org/namespaces/inkscape"
   xmlns:sodipodi="http://sodipodi.sourceforge.net/DTD/sodipodi-0.dtd"
   xmlns="http://www.w3.org/2000/svg"
   xmlns:svg="http://www.w3.org/2000/svg"><sodipodi:namedview
     id="namedview1"
     pagecolor="#ffffff"
     bordercolor="#000000"
     borderopacity="0.25"
     inkscape:showpageshadow="2"
     inkscape:pageopacity="0.0"
     inkscape:pagecheckerboard="0"
     inkscape:deskcolor="#d1d1d1"
     inkscape:document-units="mm"
     inkscape:zoom="2.0000001"
     inkscape:cx="339.74999"
     inkscape:cy="61.249998"
     inkscape:window-width="1920"
     inkscape:window-height="1001"
     inkscape:window-x="-9"
     inkscape:window-y="-9"
     inkscape:window-maximized="1"
     inkscape:current-layer="layer-oc1"><inkscape:page
       x="0"
       y="0"
       width="177"
       height="27"
       id="page1"
       margin="0"
       bleed="0"
       inkscape:export-filename="bitmap.svg"
       inkscape:export-xdpi="96"
       inkscape:export-ydpi="96" /></sodipodi:namedview><defs
     id="defs1"><clipPath
       clipPathUnits="userSpaceOnUse"
       id="clipPath2"><path
         d="M 546,0 H 9921 V 7191 H 546 V 0"
         transform="translate(-4.1666667e-6,4.1666667e-4)"
         id="path2" /></clipPath><clipPath
       clipPathUnits="userSpaceOnUse"
       id="clipPath4"><path
         d="M 546,0 H 9921 V 7191 H 546 V 0"
         transform="translate(-4.1666667e-6,4.1666667e-4)"
         id="path4" /></clipPath><clipPath
       clipPathUnits="userSpaceOnUse"
       id="clipPath5"><path
         d="M 546,0 H 9921 V 7191 H 546 V 0"
         transform="matrix(1,0,0,-1,-8376,3436)"
         id="path5" /></clipPath><clipPath
       clipPathUnits="userSpaceOnUse"
       id="clipPath7"><path
         d="M 546,0 H 9921 V 7191 H 546 V 0"
         transform="translate(-4.1666667e-6,4.1666667e-4)"
         id="path7" /></clipPath><clipPath
       clipPathUnits="userSpaceOnUse"
       id="clipPath9"><path
         d="M 546,0 H 9921 V 7191 H 546 V 0"
         transform="translate(-4.1666667e-6,4.1666667e-4)"
         id="path9" /></clipPath><clipPath
       clipPathUnits="userSpaceOnUse"
       id="clipPath11"><path
         d="M 546,0 H 9921 V 7191 H 546 V 0"
         transform="translate(-4.1666667e-6,4.1666667e-4)"
         id="path11" /></clipPath><clipPath
       clipPathUnits="userSpaceOnUse"
       id="clipPath13"><path
         d="M 546,0 H 9921 V 7191 H 546 V 0"
         transform="translate(-4.1666667e-6,4.1666667e-4)"
         id="path13" /></clipPath><clipPath
       clipPathUnits="userSpaceOnUse"
       id="clipPath15"><path
         d="M 546,0 H 9921 V 7191 H 546 V 0"
         transform="translate(-4.1666667e-6,4.1666667e-4)"
         id="path15" /></clipPath><clipPath
       clipPathUnits="userSpaceOnUse"
       id="clipPath17"><path
         d="M 546,0 H 9921 V 7191 H 546 V 0"
         transform="translate(-4.1666667e-6,4.1666667e-4)"
         id="path17" /></clipPath><clipPath
       clipPathUnits="userSpaceOnUse"
       id="clipPath19"><path
         d="M 546,0 H 9921 V 7191 H 546 V 0"
         transform="translate(-4.1666667e-6,4.1666667e-4)"
         id="path19" /></clipPath><clipPath
       clipPathUnits="userSpaceOnUse"
       id="clipPath21"><path
         d="M 546,0 H 9921 V 7191 H 546 V 0"
         transform="translate(-4.1666667e-6,4.1666667e-4)"
         id="path21" /></clipPath><clipPath
       clipPathUnits="userSpaceOnUse"
       id="clipPath23"><path
         d="M 546,0 H 9921 V 7191 H 546 V 0"
         transform="translate(-4.1666667e-6,4.1666667e-4)"
         id="path23" /></clipPath><clipPath
       clipPathUnits="userSpaceOnUse"
       id="clipPath25"><path
         d="M 546,0 H 9921 V 7191 H 546 V 0"
         transform="translate(-4.1666667e-6,4.1666667e-4)"
         id="path25" /></clipPath><clipPath
       clipPathUnits="userSpaceOnUse"
       id="clipPath27"><path
         d="M 546,0 H 9921 V 7191 H 546 V 0"
         transform="translate(-4.1666667e-6,4.1666667e-4)"
         id="path27" /></clipPath><clipPath
       clipPathUnits="userSpaceOnUse"
       id="clipPath29"><path
         d="M 546,0 H 9921 V 7191 H 546 V 0"
         transform="translate(-4.1666667e-6,4.1666667e-4)"
         id="path29" /></clipPath><clipPath
       clipPathUnits="userSpaceOnUse"
       id="clipPath31"><path
         d="M 546,0 H 9921 V 7191 H 546 V 0"
         transform="translate(-4.1666667e-6,4.1666667e-4)"
         id="path31" /></clipPath><clipPath
       clipPathUnits="userSpaceOnUse"
       id="clipPath33"><path
         d="M 546,0 H 9921 V 7191 H 546 V 0"
         transform="translate(-4.1666667e-6,4.1666667e-4)"
         id="path33" /></clipPath><clipPath
       clipPathUnits="userSpaceOnUse"
       id="clipPath35"><path
         d="M 546,0 H 9921 V 7191 H 546 V 0"
         transform="translate(-4.1666667e-6,4.1666667e-4)"
         id="path35" /></clipPath><clipPath
       clipPathUnits="userSpaceOnUse"
       id="clipPath37"><path
         d="M 546,0 H 9921 V 7191 H 546 V 0"
         transform="translate(-4.1666667e-6,4.1666667e-4)"
         id="path37" /></clipPath><clipPath
       clipPathUnits="userSpaceOnUse"
       id="clipPath38"><path
         d="M 546,0 H 9921 V 7191 H 546 V 0"
         transform="matrix(1,0,0,-1,-2094,2988)"
         id="path38" /></clipPath><clipPath
       clipPathUnits="userSpaceOnUse"
       id="clipPath4-6"><path
         d="M 546,0 H 9921 V 7191 H 546 V 0"
         transform="translate(-4.1666667e-6,4.1666667e-4)"
         id="path4-0" /></clipPath></defs><g
     id="layer-oc1"
     inkscape:groupmode="layer"
     inkscape:label="0"
     transform="matrix(0.26458333,0,0,0.26458335,220.00001,0)"><path
       id="rect3"
       style="fill:#ffffff;stroke-width:1.00201"
       d="m -278.57188,31.477938 h 106.32919 l -22.52598,64.686699 h -106.32919 z"
       sodipodi:nodetypes="ccccc" /><path
       id="path1"
       d="M 9336,3801 H 1348 l 7811,-508 z m -7988,0 7811,-508 H 1171 Z"
       style="fill:#5ba0dc;fill-opacity:1;fill-rule:nonzero;stroke:#5ba0dc;stroke-width:1;stroke-linecap:butt;stroke-linejoin:miter;stroke-miterlimit:10;stroke-dasharray:none;stroke-opacity:1"
       transform="matrix(0.08,0,0,-0.08,-919.14363,335.51875)"
       clip-path="url(#clipPath2)" /><path
       style="font-style:italic;font-weight:900;font-size:322.179px;font-family:'Segoe UI';fill:#3d3d3e"
       d="m 178.23671,-162.03338 q -16.67528,-9.28152 -29.88965,-13.05706 -13.21437,-3.77553 -26.58606,-3.77553 -10.69735,0 -16.9899,4.5621 -6.135248,4.56211 -6.135248,11.95587 0,6.92181 5.034048,11.95586 5.03404,5.03404 21.70932,14.15825 26.74338,14.15826 37.28341,29.2604 10.69735,14.944825 10.69735,38.069976 0,21.866641 -12.27049,39.013862 -12.11317,17.147221 -33.66518,25.4848612 -21.3947,8.3376397 -50.812413,8.3376397 -21.394698,0 -40.115059,-4.71941869 Q 17.933791,-5.6633025 3.9328489,-13.214372 L 15.731396,-68.903514 q 30.046966,22.181269 60.880501,22.181269 24.540973,0 24.540973,-17.46185 0,-7.865698 -6.135239,-13.057058 Q 89.0397,-82.589828 73.780246,-89.511642 48.295385,-101.4675 37.283408,-116.25501 q -10.854663,-14.94483 -10.854663,-38.06998 0,-21.86664 11.955861,-39.48581 11.95586,-17.77647 32.721303,-26.58605 20.765442,-8.9669 48.138071,-8.9669 21.70933,0 38.85655,3.93285 17.30453,3.93285 31.30548,8.96689 z m 84.70666,132.458356 q 0,14.944826 -11.01198,24.2263494 -10.85466,9.2815235 -28.63114,9.2815235 -15.57408,0 -25.48486,-8.0230118 -9.91078,-8.1803261 -9.91078,-21.0800701 0,-15.259454 10.85467,-24.540978 10.85466,-9.281523 28.94576,-9.281523 15.88871,0 25.48487,8.33764 9.75346,8.180325 9.75346,21.08007 z M 507.78052,-167.22474 q 0,25.64218 -17.77648,43.8906 -17.61916,18.24842 -47.03687,23.439777 v 0.629256 q 24.69829,9.124209 31.30548,40.272373 L 486.85777,0 h -72.20711 l -8.33764,-50.183153 q -2.51702,-14.158256 -9.28152,-21.552012 -6.60719,-7.55107 -19.50694,-7.55107 h -0.62925 L 360.22003,0 H 292.2604 l 47.66613,-225.58822 h 88.56776 q 37.44072,0 58.36348,15.25946 20.92275,15.25945 20.92275,43.10402 z m -72.52173,12.58512 q 0,-11.32661 -6.29256,-17.61916 -6.13525,-6.29256 -18.56305,-6.29256 h -12.11317 l -11.64124,51.59898 h 15.10214 q 15.25946,0 24.38367,-8.02302 9.12421,-8.02301 9.12421,-19.66424 z m 150.50793,125.064596 q 0,14.944826 -11.01198,24.2263494 -10.85466,9.2815235 -28.63114,9.2815235 -15.57408,0 -25.48486,-8.0230118 -9.91078,-8.1803261 -9.91078,-21.0800701 0,-15.259454 10.85467,-24.540978 10.85466,-9.281523 28.94576,-9.281523 15.88871,0 25.48486,8.33764 9.75347,8.180325 9.75347,21.08007 z M 760.59917,0 H 615.08376 l 47.66613,-225.58822 h 67.95963 L 694.37,-53.172118 h 77.55578 z"
       id="text4"
       clip-path="url(#clipPath5)"
       transform="matrix(0.08,0,0,0.08,-249.06363,60.638714)"
       aria-label="S.R.L" /><path
       id="path3"
       d="M 9106.4799,3142 H 7487.0104 l 1566.9961,-151 z m -1620.0139,0 1567.5444,-151 H 7486.9822 Z"
       style="fill:#5ba0dc;fill-opacity:1;fill-rule:nonzero;stroke:#5ba0dc;stroke-width:1;stroke-linecap:butt;stroke-linejoin:miter;stroke-miterlimit:10;stroke-dasharray:none;stroke-opacity:1"
       transform="matrix(0.08,0,0,-0.08,-919.21394,335.70625)"
       clip-path="url(#clipPath4)"
       sodipodi:nodetypes="cccccccc" /><path
       style="font-style:italic;font-weight:900;font-size:1597.25px;font-family:'Segoe UI';fill:#3d3d3e"
       d="M 905.47229,-854.77832 H 541.25562 l -41.33509,201.21606 h 332.24048 l -57.71313,263.60865 H 442.2074 L 361.09705,0 H 24.177124 L 260.48901,-1118.387 h 701.1366 z m 859.43171,0 h -359.5372 l -33.5361,163.00061 h 336.92 l -55.3734,263.60864 h -336.92 l -35.0958,164.56043 h 384.4943 L 1609.7025,0 H 888.28827 l 236.31193,-1118.387 h 696.4571 z M 2491.3834,0 h -721.4142 l 236.3119,-1118.387 h 336.9199 l -180.1585,854.77836 h 384.4942 z m 1211.1699,-829.04138 q 0,127.12488 -88.1295,217.59411 -87.3496,90.46924 -233.1922,116.20618 v 3.11963 q 122.4454,45.23462 155.2015,199.65625 L 3598.8257,0 h -357.9774 l -41.3351,-248.79041 q -12.4785,-70.19165 -46.0145,-106.84729 -32.7561,-37.43554 -96.7085,-37.43554 h -3.1197 L 2971.0004,0 h -336.92 l 236.3119,-1118.387 h 439.0878 q 185.6179,0 289.3456,75.651 103.7276,75.65104 103.7276,213.69462 z m -359.5372,62.39258 q 0,-56.15332 -31.1963,-87.34961 -30.4164,-31.19629 -92.029,-31.19629 h -60.0529 l -57.7131,255.80957 h 74.8711 q 75.651,0 120.8856,-39.77527 45.2346,-39.77527 45.2346,-97.4884 z m 1552.5879,120.10571 q 0,184.0581 -81.1103,342.37927 -80.3305,158.32117 -223.8334,240.991335 -142.723,82.670166 -340.0396,82.670166 -149.7422,0 -258.1493,-60.832764 -107.6272,-61.612667 -164.5604,-173.139407 -56.9332,-111.52673 -56.9332,-255.02966 0,-185.61792 81.8902,-343.15918 81.8903,-157.54126 225.3932,-240.99137 143.503,-83.45 333.0204,-83.45 225.3932,0 354.8578,131.0244 129.4646,131.02439 129.4646,359.53721 z m -357.9774,10.9187 q 0,-102.16785 -42.8949,-155.20154 -42.115,-53.8136 -121.6655,-53.8136 -73.3113,0 -127.9048,49.13416 -54.5935,49.13415 -85.7898,136.48376 -30.4164,86.56971 -30.4164,181.71839 0,103.72766 42.8949,156.76135 42.8949,52.25378 118.5459,52.25378 70.1916,0 125.5651,-43.6748 55.3734,-43.67481 88.1295,-132.58423 33.536,-89.68933 33.536,-191.07727 z m 1599.3325,-28.85657 q 0,198.87635 -83.4501,352.51807 -82.6701,153.64172 -233.1922,233.19226 Q 5670.5746,0 5465.459,0 h -521.758 l 236.3119,-1118.387 H 5625.34 q 252.6899,0 382.1545,119.32584 129.4646,119.32581 129.4646,334.5802 z m -357.9774,25.73694 q 0,-108.4071 -56.9332,-162.2207 -56.9333,-53.8136 -174.6993,-53.8136 h -86.5697 l -124.0052,591.16968 h 113.0865 q 154.4217,0 241.7713,-100.60803 87.3496,-101.38794 87.3496,-274.52735 z"
       id="text37"
       clip-path="url(#clipPath38)"
       transform="matrix(0.08,0,0,0.08,-751.62363,96.478717)"
       aria-label="FELROD" /><path
       style="fill:#ffff00"
       id="path39"
       sodipodi:type="arc"
       sodipodi:cx="-231.37236"
       sodipodi:cy="78.146347"
       sodipodi:rx="2.9720583"
       sodipodi:ry="2.9720583"
       sodipodi:start="0"
       sodipodi:end="6.2673347"
       sodipodi:open="true"
       sodipodi:arc-type="arc"
       d="m -228.4003,78.146347 a 2.9720583,2.9720583 0 0 1 -2.96028,2.972035 2.9720583,2.9720583 0 0 1 -2.98375,-2.948481 2.9720583,2.9720583 0 0 1 2.93664,-2.995402 2.9720583,2.9720583 0 0 1 3.00701,2.924741" /></g></svg>
