<svg xmlns="http://www.w3.org/2000/svg" xmlns:xlink="http://www.w3.org/1999/xlink" xml:space="preserve" viewBox="0 0 177 27">
  <defs>
    <path id="a" d="M546 0h9375v7191H546V0"/>
  </defs>
  <defs>
    <clipPath id="b" clipPathUnits="userSpaceOnUse">
      <use xlink:href="#a"/>
    </clipPath>
    <clipPath id="d" clipPathUnits="userSpaceOnUse">
      <use xlink:href="#a"/>
    </clipPath>
    <clipPath id="c" clipPathUnits="userSpaceOnUse">
      <use xlink:href="#a" transform="matrix(1 0 0 -1 -8376 3436)"/>
    </clipPath>
    <clipPath id="e" clipPathUnits="userSpaceOnUse">
      <use xlink:href="#a" transform="matrix(1 0 0 -1 -2094 2988)"/>
    </clipPath>
  </defs>
  <path fill="#fff" d="M146.295 8.329h28.132l-5.96 17.115h-28.132z"/>
  <path fill="#5ba0dc" stroke="#5ba0dc" stroke-miterlimit="10" d="M9336 3801H1348l7811-508zm-7988 0 7811-508H1171Z" clip-path="url(#b)" transform="matrix(.02117 0 0 -.02117 -23.19 88.773)"/>
  <path fill="#3d3d3e" d="M178.237-162.033q-16.676-9.282-29.89-13.057-13.214-3.776-26.586-3.776-10.697 0-16.99 4.562-6.135 4.562-6.135 11.956 0 6.922 5.034 11.956t21.71 14.158q26.743 14.158 37.283 29.26 10.697 14.945 10.697 38.07 0 21.867-12.27 39.014-12.114 17.148-33.666 25.485-21.394 8.338-50.812 8.338-21.395 0-40.115-4.72Q17.934-5.663 3.933-13.214l11.798-55.69q30.047 22.182 60.88 22.182 24.542 0 24.542-17.462 0-7.866-6.135-13.057-5.978-5.349-21.238-12.27-25.485-11.957-36.497-26.744Q26.43-131.2 26.43-154.325q0-21.867 11.956-39.486 11.955-17.776 32.72-26.586 20.766-8.967 48.139-8.967 21.71 0 38.857 3.933 17.304 3.933 31.305 8.967zm84.706 132.458q0 14.945-11.012 24.226-10.854 9.282-28.63 9.282-15.575 0-25.486-8.023-9.91-8.18-9.91-21.08 0-15.26 10.854-24.541 10.855-9.282 28.946-9.282 15.889 0 25.485 8.338 9.753 8.18 9.753 21.08zm244.838-137.65q0 25.642-17.777 43.89-17.62 18.25-47.037 23.44v.63q24.698 9.124 31.306 40.272L486.858 0H414.65l-8.338-50.183q-2.517-14.158-9.281-21.552-6.608-7.551-19.507-7.551h-.63L360.22 0h-67.96l47.667-225.588h88.567q37.441 0 58.364 15.26 20.923 15.259 20.923 43.103zm-72.522 12.585q0-11.326-6.293-17.619-6.135-6.292-18.563-6.292H398.29l-11.641 51.599h15.102q15.26 0 24.384-8.023t9.124-19.665zM585.767-29.575q0 14.945-11.012 24.226-10.855 9.282-28.631 9.282-15.574 0-25.485-8.023-9.911-8.18-9.911-21.08 0-15.26 10.855-24.541 10.854-9.282 28.945-9.282 15.89 0 25.485 8.338 9.754 8.18 9.754 21.08zM760.599 0H615.084l47.666-225.588h67.96L694.37-53.172h77.556z" aria-label="S.R.L" clip-path="url(#c)" font-family="Segoe UI" font-size="322.179" font-style="italic" font-weight="900" transform="translate(154.102 16.044) scale(.02117)"/>
  <path fill="#5ba0dc" stroke="#5ba0dc" stroke-miterlimit="10" d="M9106.48 3142H7487.01l1566.996-151zm-1620.014 0 1567.544-151H7486.982Z" clip-path="url(#d)" transform="matrix(.02117 0 0 -.02117 -23.209 88.822)"/>
  <path fill="#3d3d3e" d="M905.472-854.778H541.256L499.92-653.562h332.24l-57.713 263.608h-332.24L361.096 0H24.177L260.49-1118.387h701.137zm859.432 0h-359.537l-33.536 163h336.92l-55.374 263.609h-336.92l-35.096 164.56h384.495L1609.703 0H888.288L1124.6-1118.387h696.457zM2491.384 0h-721.415l236.312-1118.387h336.92l-180.159 854.778h384.495zm1211.17-829.041q0 127.125-88.13 217.594-87.35 90.469-233.192 116.206v3.12q122.445 45.234 155.201 199.656L3598.826 0h-357.978l-41.335-248.79q-12.478-70.192-46.014-106.848-32.756-37.435-96.709-37.435h-3.12L2971 0h-336.92l236.312-1118.387h439.088q185.618 0 289.346 75.651 103.727 75.651 103.727 213.695zm-359.538 62.392q0-56.153-31.196-87.35-30.417-31.196-92.03-31.196h-60.052l-57.713 255.81h74.87q75.652 0 120.887-39.775 45.234-39.776 45.234-97.489zm1552.588 120.106q0 184.058-81.11 342.38-80.33 158.32-223.834 240.99-142.723 82.67-340.04 82.67-149.741 0-258.149-60.832-107.627-61.613-164.56-173.14-56.933-111.526-56.933-255.03 0-185.617 81.89-343.158 81.89-157.542 225.393-240.992 143.503-83.45 333.02-83.45 225.394 0 354.858 131.025 129.465 131.024 129.465 359.537zm-357.977 10.919q0-102.168-42.895-155.202-42.115-53.814-121.666-53.814-73.311 0-127.905 49.135-54.593 49.134-85.79 136.483-30.416 86.57-30.416 181.719 0 103.727 42.895 156.761 42.895 52.254 118.546 52.254 70.192 0 125.565-43.675 55.374-43.675 88.13-132.584 33.536-89.69 33.536-191.077zm1599.332-28.857q0 198.876-83.45 352.518-82.67 153.642-233.192 233.192Q5670.575 0 5465.459 0h-521.758l236.312-1118.387h445.327q252.69 0 382.154 119.326 129.465 119.326 129.465 334.58zm-357.977 25.737q0-108.407-56.933-162.22-56.934-53.814-174.7-53.814h-86.57l-124.005 591.17h113.087q154.422 0 241.771-100.609 87.35-101.388 87.35-274.527z" aria-label="FELROD" clip-path="url(#e)" font-family="Segoe UI" font-size="1597.25" font-style="italic" font-weight="900" transform="translate(21.133 25.527) scale(.02117)"/>
  <path fill="#ff0" d="M159.57 20.676a.786.786 0 0 1-.784.787.786.786 0 0 1-.79-.78.786.786 0 0 1 .777-.793.786.786 0 0 1 .796.774"/>
</svg>
