<svg version="1.1" id="Layer_1" xmlns="http://www.w3.org/2000/svg" xmlns:xlink="http://www.w3.org/1999/xlink" x="0px" y="0px"
	 width="100%" viewBox="0 0 1254 301" enable-background="new 0 0 1254 301" xml:space="preserve">
<path fill="#FFFFFF" opacity="1.000000" stroke="none" 
	d="
M915.000000,302.000000 
	C610.000000,302.000000 305.500000,302.000000 1.000000,302.000000 
	C1.000000,201.666672 1.000000,101.333336 1.000000,1.000000 
	C419.000000,1.000000 837.000000,1.000000 1255.000000,1.000000 
	C1255.000000,101.333336 1255.000000,201.666672 1255.000000,302.000000 
	C1141.833374,302.000000 1028.666626,302.000000 915.000000,302.000000 
M1136.880249,123.038033 
	C1139.869263,122.606613 1139.781128,124.685524 1140.246704,126.716583 
	C1140.445312,127.583191 1142.057007,128.125916 1143.026611,128.815857 
	C1143.461182,127.783325 1144.183350,126.775551 1144.274780,125.713478 
	C1144.517700,122.892548 1144.891235,119.989059 1144.485718,117.225075 
	C1143.561279,110.924088 1149.012329,115.123573 1150.726807,113.233994 
	C1151.194702,112.718315 1152.073242,112.575195 1152.689209,112.294830 
	C1151.630493,107.388466 1148.751587,106.160316 1143.987427,106.937981 
	C1145.309570,105.179802 1146.766724,103.978775 1148.413940,103.597305 
	C1152.066284,102.751465 1153.179810,101.054993 1151.633667,96.770729 
	C1150.658081,98.671371 1149.914429,100.120239 1149.135742,101.637291 
	C1144.225830,95.908203 1142.566772,95.990143 1136.975098,101.291412 
	C1135.829834,102.377335 1133.720581,102.944542 1132.071533,102.913300 
	C1125.622070,102.791153 1119.176147,102.008751 1112.734009,102.064461 
	C1097.136597,102.199341 1081.542969,102.800697 1065.945557,102.935509 
	C1059.503418,102.991188 1053.058228,102.149994 1046.608887,102.042725 
	C1036.795898,101.879509 1026.978149,102.000015 1017.162415,102.000000 
	C1005.935181,101.999985 994.706360,102.093521 983.482117,101.910919 
	C981.534668,101.879234 978.542908,101.234840 977.857483,99.921539 
	C975.224121,94.875862 972.555664,96.873657 969.112366,98.710770 
	C967.133606,95.464806 965.446289,91.992233 963.127686,89.010506 
	C950.242249,72.440071 932.001099,66.968666 912.258423,66.262161 
	C890.320801,65.477089 868.335144,66.072418 846.371094,65.941772 
	C843.530884,65.924881 842.434082,66.684570 841.844299,69.649437 
	C839.352051,82.177910 836.491516,94.633110 832.876221,107.012276 
	C822.167236,107.164429 811.458252,107.316589 800.183716,106.997169 
	C796.207825,96.293495 790.890198,86.501488 781.987976,78.949883 
	C771.618469,70.153648 759.496155,65.685532 746.172485,64.492500 
	C720.567444,62.199787 696.795410,67.131325 677.402954,85.024643 
	C670.444641,91.445099 665.241211,99.767403 658.279846,107.022964 
	C651.916382,107.029396 645.552856,107.035835 638.977539,106.184761 
	C638.252686,88.076126 629.815430,75.715714 612.609802,70.471611 
	C603.562683,67.714134 593.796936,66.485535 584.304871,66.188629 
	C564.224670,65.560509 544.111206,65.997269 523.764893,65.997269 
	C520.734131,79.872749 517.768005,93.452148 513.899780,106.962036 
	C489.957062,106.937981 466.014343,106.913925 442.019501,106.096451 
	C444.760437,92.860512 447.501373,79.624580 450.276123,66.225319 
	C434.413544,66.225319 419.171387,66.225319 403.733002,66.225319 
	C400.707672,79.978264 397.721436,93.553619 393.850342,106.996239 
	C369.253906,106.991913 344.657471,106.987587 319.913757,106.153717 
	C319.799469,103.026627 321.119232,101.854301 324.406097,101.933868 
	C333.397461,102.151535 342.397583,102.008255 351.394226,102.008064 
	C357.658752,102.007935 363.923248,102.008049 370.347046,102.008049 
	C372.980530,89.800446 375.496124,78.139305 378.047699,66.311447 
	C377.172485,66.183159 376.540100,66.009659 375.907623,66.009346 
	C345.585632,65.994392 315.263519,66.028610 284.941803,65.935867 
	C282.143005,65.927315 281.413544,66.952797 280.886292,69.562576 
	C278.353241,82.101395 275.524933,94.580559 271.901917,107.007935 
	C247.957367,107.008522 224.012817,107.009109 199.903961,106.179169 
	C199.691971,102.563255 201.656128,101.918808 204.872391,101.948616 
	C220.177460,102.090477 235.484604,102.012085 251.013947,102.012085 
	C253.593170,89.989250 256.122314,78.199753 258.664673,66.348785 
	C257.827759,66.189758 257.343811,66.017578 256.859833,66.017303 
	C226.220306,66.000153 195.580688,66.030724 164.941452,65.935883 
	C162.145615,65.927231 161.413300,66.949295 160.886627,69.559364 
	C158.357590,82.092850 155.533279,94.566757 151.908707,107.005524 
	C127.293625,106.989662 102.678329,107.017738 78.063728,106.900536 
	C75.095985,106.886406 73.841812,107.801254 72.832405,110.711853 
	C69.660271,119.858704 65.884285,128.793976 62.561714,137.891373 
	C58.572613,148.813751 54.809338,159.818604 50.469326,171.062485 
	C50.353039,171.387360 50.236755,171.712234 50.007206,172.413086 
	C50.007206,172.413086 49.972488,172.804214 49.464085,173.045563 
	C49.351212,173.377396 49.238338,173.709229 49.018612,174.649109 
	C48.984718,175.059280 48.950829,175.469467 48.312061,176.380920 
	C49.879280,176.939529 51.444305,177.978271 53.014053,177.985443 
	C81.307137,178.114975 109.600784,178.119965 137.890060,178.923203 
	C134.937775,192.805222 131.985504,206.687241 128.994141,220.753021 
	C144.801697,220.753021 160.188553,220.753021 175.636871,220.753021 
	C175.837097,219.889099 175.991898,219.260147 176.128235,218.627228 
	C179.050125,205.062820 181.969955,191.497940 185.843536,178.002319 
	C209.859482,178.037140 233.875443,178.071976 257.900757,178.884018 
	C254.944733,192.781876 251.988693,206.679718 248.978058,220.834351 
	C282.522034,220.834351 315.589905,220.834351 348.923187,220.834351 
	C351.462036,208.990448 353.987427,197.209259 356.634369,184.861237 
	C338.690918,184.861237 321.326508,184.861237 303.514099,184.861237 
	C304.112244,182.237335 304.586639,180.156296 305.990509,178.055359 
	C330.621857,178.081497 355.253235,178.107635 379.897247,178.908234 
	C376.940002,192.801575 373.982727,206.694901 370.970673,220.845779 
	C404.501404,220.845779 437.569000,220.845779 470.912445,220.845779 
	C473.461426,208.997360 475.995575,197.217789 478.651184,184.873749 
	C460.729034,184.873749 443.362701,184.873749 425.545776,184.873749 
	C426.153778,182.250137 426.635254,180.172455 428.036652,178.044785 
	C451.987335,178.087280 475.938019,178.129761 499.897858,178.942429 
	C496.939636,192.829788 493.981415,206.717133 490.971954,220.845001 
	C506.784210,220.845001 522.065613,220.845001 537.580322,220.845001 
	C540.750732,206.515564 543.895874,192.300522 547.973022,178.055435 
	C553.993408,177.979492 560.013794,177.903549 566.638672,178.285416 
	C568.099792,184.900146 569.699768,191.488052 570.985291,198.136734 
	C572.449646,205.710510 573.633545,213.338516 574.888855,220.649216 
	C591.717163,220.649216 607.884155,220.649216 624.280457,220.649216 
	C621.360168,206.137390 618.520142,192.024353 616.657166,177.994370 
	C627.722961,177.970093 638.788696,177.945816 650.214478,178.586166 
	C653.422058,188.671906 657.907959,198.031982 665.420410,205.714417 
	C675.997925,216.531158 689.113037,222.047272 703.908142,223.450882 
	C726.689148,225.612152 748.194336,221.930237 767.419128,208.513641 
	C778.781616,200.583984 786.487732,189.704239 794.020874,177.966843 
	C802.281738,177.972351 810.542664,177.977844 818.915955,178.769409 
	C815.954590,192.693588 812.993225,206.617752 810.017334,220.610031 
	C838.801758,220.610031 867.323303,220.610031 896.277466,221.297913 
	C901.418091,221.949814 906.542786,222.837860 911.703857,223.185257 
	C916.578613,223.513382 921.781555,222.248795 926.317017,223.532791 
	C932.485718,225.279160 938.022705,224.685699 943.805298,222.822464 
	C946.231323,222.040787 948.765137,221.083130 951.252014,221.077103 
	C994.556702,220.972076 1037.862671,221.144775 1081.165527,220.849976 
	C1087.639526,220.805908 1093.049316,224.947113 1100.072021,223.459076 
	C1104.449341,222.531555 1105.032471,221.542755 1105.057251,217.890747 
	C1105.113892,209.529602 1110.437134,205.876785 1118.409424,208.700836 
	C1118.576416,208.081070 1119.078857,207.221207 1118.848389,206.916870 
	C1116.406738,203.694504 1116.798706,200.569839 1118.606201,197.211746 
	C1118.762695,196.920914 1115.772705,194.533386 1115.716919,194.589386 
	C1113.078979,197.232819 1111.491943,195.381943 1110.182373,193.278732 
	C1108.700317,190.898499 1107.298218,190.234619 1105.135620,192.550186 
	C1104.440552,193.294479 1103.221069,193.856155 1102.197510,193.935822 
	C1096.419678,194.385468 1090.630615,194.903000 1084.841553,194.952972 
	C1069.186279,195.088089 1053.529175,195.011383 1037.872803,194.975830 
	C1036.683716,194.973129 1035.495361,194.632812 1032.938965,194.238419 
	C1035.994019,191.489227 1038.062988,189.627380 1039.939575,187.938614 
	C1039.159424,186.975845 1038.141724,185.762726 1037.248657,184.463806 
	C1037.212158,184.410797 1038.288818,183.275894 1038.954102,183.128052 
	C1040.068970,182.880341 1041.270264,183.003189 1042.435181,183.002869 
	C1058.591187,182.998398 1074.784424,183.650192 1090.888062,182.732285 
	C1099.283936,182.253754 1106.792236,182.484375 1113.926514,187.271393 
	C1115.342041,188.221191 1117.763062,187.672775 1120.336792,187.860123 
	C1119.445312,185.432571 1118.323608,183.051010 1118.555786,182.910706 
	C1122.930542,180.267899 1119.581909,176.422607 1120.286377,173.295319 
	C1120.657959,171.645691 1121.425171,169.881210 1122.540649,168.643539 
	C1125.270020,165.615402 1128.305908,162.863480 1131.031372,160.184280 
	C1127.814819,154.128082 1128.912720,149.114090 1133.404297,145.019501 
	C1134.600464,143.929108 1135.808960,142.171234 1135.890259,140.659561 
	C1136.203857,134.820984 1136.063843,128.958023 1136.880249,123.038033 
M1133.274536,151.880569 
	C1133.467041,152.424759 1133.659546,152.968948 1133.852051,153.513184 
	C1134.131104,153.385651 1134.410156,153.258118 1134.689209,153.130539 
	C1134.362793,152.570404 1134.036377,152.010284 1133.274536,151.880569 
M901.589355,224.517166 
	C901.589355,224.517166 901.476746,224.584869 901.589355,224.517166 
z"/>
<path fill="#3D3E3E" opacity="1.000000" stroke="none" 
	d="
M833.765625,107.115112 
	C836.491516,94.633110 839.352051,82.177910 841.844299,69.649437 
	C842.434082,66.684570 843.530884,65.924881 846.371094,65.941772 
	C868.335144,66.072418 890.320801,65.477089 912.258423,66.262161 
	C932.001099,66.968666 950.242249,72.440071 963.127686,89.010506 
	C965.446289,91.992233 967.133606,95.464806 969.433472,99.307007 
	C970.782715,102.347130 971.810913,104.791016 972.843994,107.647034 
	C973.552490,112.971916 974.579407,117.863533 974.901917,122.801170 
	C976.113342,141.346634 972.757141,159.093201 964.739624,176.147736 
	C964.304993,176.838257 964.110046,177.369400 963.634399,178.098450 
	C958.890747,184.509384 954.427795,190.722397 949.651001,197.059723 
	C947.827637,198.490524 946.332031,199.813477 944.806458,201.100983 
	C934.288635,209.977921 921.852966,214.931763 908.401428,218.730026 
	C903.933716,219.396744 899.889282,220.003387 895.844849,220.610046 
	C867.323303,220.610031 838.801758,220.610031 810.017334,220.610031 
	C812.993225,206.617752 815.954590,192.693588 818.974243,178.000092 
	C823.943542,153.858902 828.854614,130.487000 833.765625,107.115112 
M904.705078,178.721222 
	C909.222412,173.726135 914.540039,169.238235 918.092896,163.631912 
	C925.828735,151.424622 926.288025,137.526672 924.641602,123.665382 
	C923.800537,116.584785 920.655151,110.313522 913.403748,106.275688 
	C904.753723,101.528282 895.305176,102.074257 885.905151,101.912132 
	C881.965393,101.844185 880.322998,103.067093 880.663940,107.690735 
	C875.808716,131.120972 870.953491,154.551224 865.770203,178.743332 
	C865.399597,180.678253 865.028992,182.613190 864.585144,184.930771 
	C878.361938,185.014694 891.868347,186.399704 904.705078,178.721222 
z"/>
<path fill="#3D3E3E" opacity="1.000000" stroke="none" 
	d="
M793.113281,177.862885 
	C786.487732,189.704239 778.781616,200.583984 767.419128,208.513641 
	C748.194336,221.930237 726.689148,225.612152 703.908142,223.450882 
	C689.113037,222.047272 675.997925,216.531158 665.420410,205.714417 
	C657.907959,198.031982 653.422058,188.671906 650.047974,177.859756 
	C646.714050,161.665863 646.525513,146.170853 650.721680,130.922974 
	C652.942627,122.852654 656.359741,115.111496 659.236816,107.221718 
	C665.241211,99.767403 670.444641,91.445099 677.402954,85.024643 
	C696.795410,67.131325 720.567444,62.199787 746.172485,64.492500 
	C759.496155,65.685532 771.618469,70.153648 781.987976,78.949883 
	C790.890198,86.501488 796.207825,96.293495 800.455566,107.640991 
	C800.861023,109.608467 800.856323,110.963661 801.149841,112.250870 
	C803.886780,124.255013 804.214905,136.455597 801.834839,148.389236 
	C799.839233,158.395584 796.087463,168.051712 793.113281,177.862885 
M736.600159,177.837784 
	C751.648926,167.159866 758.068665,132.609116 750.408386,116.204140 
	C748.718384,112.584915 744.875244,109.971123 741.649353,106.267265 
	C734.221924,103.314575 726.859436,102.709877 718.952515,106.942719 
	C716.705811,108.614128 714.132202,109.983604 712.265076,112.005524 
	C699.388977,125.949394 696.277710,142.973312 697.579895,161.126755 
	C698.030579,167.408813 699.327271,173.718231 705.068237,178.680206 
	C713.831909,186.130997 727.338074,185.848175 736.600159,177.837784 
z"/>
<path fill="#3D3E3E" opacity="1.000000" stroke="none" 
	d="
M547.041016,178.085495 
	C543.895874,192.300522 540.750732,206.515564 537.580322,220.845001 
	C522.065613,220.845001 506.784210,220.845001 490.971954,220.845001 
	C493.981415,206.717133 496.939636,192.829788 499.962280,178.262878 
	C500.001526,177.383698 499.976410,177.184067 500.124603,176.635361 
	C505.132568,153.201355 509.967255,130.116455 514.801941,107.031555 
	C517.768005,93.452148 520.734131,79.872749 523.764893,65.997269 
	C544.111206,65.997269 564.224670,65.560509 584.304871,66.188629 
	C593.796936,66.485535 603.562683,67.714134 612.609802,70.471611 
	C629.815430,75.715714 638.252686,88.076126 639.013672,107.030907 
	C636.897705,134.380783 619.584717,146.572586 594.769287,153.080200 
	C606.717651,158.315063 612.015930,167.474442 615.680054,177.911331 
	C618.520142,192.024353 621.360168,206.137390 624.280457,220.649216 
	C607.884155,220.649216 591.717163,220.649216 574.888855,220.649216 
	C573.633545,213.338516 572.449646,205.710510 570.985291,198.136734 
	C569.699768,191.488052 568.099792,184.900146 566.320190,177.710388 
	C563.354187,174.289047 561.185486,170.594223 557.959229,168.773239 
	C551.271484,164.998642 549.215759,166.282318 547.655518,173.663773 
	C547.348572,175.116119 547.240662,176.610504 547.041016,178.085495 
M587.329895,106.253220 
	C584.246338,99.596680 578.426392,98.059555 571.836487,97.997238 
	C563.115662,97.914780 563.115540,97.925224 561.703857,107.665016 
	C559.809326,116.221062 557.914734,124.777107 555.776062,134.435562 
	C562.397583,133.921387 568.432312,134.112900 574.156189,132.871201 
	C586.144470,130.270447 592.105225,118.162056 587.329895,106.253220 
z"/>
<path fill="#3D3E3E" opacity="1.000000" stroke="none" 
	d="
M305.061035,178.075272 
	C304.586639,180.156296 304.112244,182.237335 303.514099,184.861237 
	C321.326508,184.861237 338.690918,184.861237 356.634369,184.861237 
	C353.987427,197.209259 351.462036,208.990448 348.923187,220.834351 
	C315.589905,220.834351 282.522034,220.834351 248.978058,220.834351 
	C251.988693,206.679718 254.944733,192.781876 257.960327,178.216339 
	C257.995728,177.359283 257.971558,177.169922 258.131592,176.637054 
	C263.144318,153.222687 267.972900,130.151810 272.801453,107.080917 
	C275.524933,94.580559 278.353241,82.101395 280.886292,69.562576 
	C281.413544,66.952797 282.143005,65.927315 284.941803,65.935867 
	C315.263519,66.028610 345.585632,65.994392 375.907623,66.009346 
	C376.540100,66.009659 377.172485,66.183159 378.047699,66.311447 
	C375.496124,78.139305 372.980530,89.800446 370.347046,102.008049 
	C363.923248,102.008049 357.658752,102.007935 351.394226,102.008064 
	C342.397583,102.008255 333.397461,102.151535 324.406097,101.933868 
	C321.119232,101.854301 319.799469,103.026627 319.805908,106.916565 
	C318.494354,113.287254 317.290619,118.895096 315.955078,125.117050 
	C331.635895,125.117050 346.704071,125.117050 362.520874,125.117050 
	C359.877777,137.492203 357.373840,149.215759 354.802124,161.256775 
	C338.839386,161.256775 323.613831,161.256775 308.063568,161.256775 
	C307.581360,164.970398 307.156403,168.243225 306.478516,171.807465 
	C305.837433,174.091034 305.449219,176.083145 305.061035,178.075272 
z"/>
<path fill="#3D3E3E" opacity="1.000000" stroke="none" 
	d="
M184.890182,177.933167 
	C181.969955,191.497940 179.050125,205.062820 176.128235,218.627228 
	C175.991898,219.260147 175.837097,219.889099 175.636871,220.753021 
	C160.188553,220.753021 144.801697,220.753021 128.994141,220.753021 
	C131.985504,206.687241 134.937775,192.805222 137.957642,178.255386 
	C138.003937,177.396042 137.982620,177.204498 138.148773,176.668976 
	C143.162109,153.237274 147.987961,130.149536 152.813812,107.061813 
	C155.533279,94.566757 158.357590,82.092850 160.886627,69.559364 
	C161.413300,66.949295 162.145615,65.927231 164.941452,65.935883 
	C195.580688,66.030724 226.220306,66.000153 256.859833,66.017303 
	C257.343811,66.017578 257.827759,66.189758 258.664673,66.348785 
	C256.122314,78.199753 253.593170,89.989250 251.013947,102.012085 
	C235.484604,102.012085 220.177460,102.090477 204.872391,101.948616 
	C201.656128,101.918808 199.691971,102.563255 199.799515,106.935532 
	C198.108719,114.928757 196.522354,122.165611 194.761169,130.200043 
	C210.458633,130.200043 225.460251,130.200043 240.844238,130.200043 
	C238.074829,142.541214 235.472336,154.138519 232.808807,166.007904 
	C230.542999,166.007904 228.734238,166.008484 226.925476,166.007828 
	C214.946487,166.003403 202.967468,165.983810 190.988541,166.009659 
	C189.123581,166.013672 186.690414,165.310379 186.559662,168.906494 
	C186.161087,170.483063 186.002335,171.752502 185.678558,173.320831 
	C185.353043,174.730453 185.192566,175.841187 184.959351,177.191833 
	C184.887802,177.598892 184.888992,177.766037 184.890182,177.933167 
z"/>
<path fill="#3D3E3E" opacity="1.000000" stroke="none" 
	d="
M427.116699,178.094772 
	C426.635254,180.172455 426.153778,182.250137 425.545776,184.873749 
	C443.362701,184.873749 460.729034,184.873749 478.651184,184.873749 
	C475.995575,197.217789 473.461426,208.997360 470.912445,220.845779 
	C437.569000,220.845779 404.501404,220.845779 370.970673,220.845779 
	C373.982727,206.694901 376.940002,192.801575 379.947571,178.231064 
	C379.970917,177.358948 379.943909,177.164001 380.007477,176.712769 
	C380.133087,176.097855 380.168121,175.739227 380.450500,175.084442 
	C381.133911,172.539047 381.570007,170.289780 382.093170,167.653137 
	C386.365234,147.220169 390.550201,127.174568 394.735168,107.128967 
	C397.721436,93.553619 400.707672,79.978264 403.733002,66.225319 
	C419.171387,66.225319 434.413544,66.225319 450.276123,66.225319 
	C447.501373,79.624580 444.760437,92.860512 441.914642,106.872040 
	C439.523743,118.304893 437.169006,128.948013 434.971252,139.623474 
	C432.840454,149.973404 430.871002,160.356552 428.585693,171.019897 
	C427.932739,173.574707 427.524719,175.834732 427.116699,178.094772 
z"/>
<path fill="#5C9FDA" opacity="1.000000" stroke="none" 
	d="
M152.361267,107.033669 
	C147.987961,130.149536 143.162109,153.237274 137.683945,176.653625 
	C109.748985,176.981369 82.466286,177.004517 55.183830,176.932144 
	C53.093948,176.926605 51.005859,176.246307 48.916939,175.879639 
	C48.950829,175.469467 48.984718,175.059280 49.287354,174.196808 
	C49.694893,173.431091 49.833691,173.117645 49.972488,172.804214 
	C49.972488,172.804214 50.007206,172.413086 50.278755,172.075439 
	C50.682964,171.421112 50.815624,171.104431 50.948280,170.787750 
	C54.809338,159.818604 58.572613,148.813751 62.561714,137.891373 
	C65.884285,128.793976 69.660271,119.858704 72.832405,110.711853 
	C73.841812,107.801254 75.095985,106.886406 78.063728,106.900536 
	C102.678329,107.017738 127.293625,106.989662 152.361267,107.033669 
z"/>
<path fill="#5C9FDA" opacity="1.000000" stroke="none" 
	d="
M428.830688,170.725113 
	C430.871002,160.356552 432.840454,149.973404 434.971252,139.623474 
	C437.169006,128.948013 439.523743,118.304893 441.940704,107.268745 
	C466.014343,106.913925 489.957062,106.937981 514.350830,106.996796 
	C509.967255,130.116455 505.132568,153.201355 499.660217,176.629639 
	C478.130951,176.977448 457.239349,176.968552 436.347778,176.997314 
	C432.035614,177.003250 428.220032,176.553619 428.830688,170.725113 
z"/>
<path fill="#5D9FD9" opacity="1.000000" stroke="none" 
	d="
M394.292755,107.062607 
	C390.550201,127.174568 386.365234,147.220169 381.790527,167.869400 
	C381.001556,170.775558 380.602325,173.078064 380.203125,175.380585 
	C380.168121,175.739227 380.133087,176.097855 379.545990,176.710632 
	C356.918793,176.970825 334.842651,176.866882 312.769501,177.077682 
	C308.466827,177.118774 306.576904,175.731293 306.731445,171.516037 
	C307.156403,168.243225 307.581360,164.970398 308.063568,161.256775 
	C323.613831,161.256775 338.839386,161.256775 354.802124,161.256775 
	C357.373840,149.215759 359.877777,137.492203 362.520874,125.117050 
	C346.704071,125.117050 331.635895,125.117050 315.955078,125.117050 
	C317.290619,118.895096 318.494354,113.287254 319.879547,107.331337 
	C344.657471,106.987587 369.253906,106.991913 394.292755,107.062607 
z"/>
<path fill="#5D9ED8" opacity="1.000000" stroke="none" 
	d="
M185.032089,176.951904 
	C185.192566,175.841187 185.353043,174.730453 185.999329,173.085083 
	C186.589920,171.233398 186.694702,169.916382 186.799469,168.599365 
	C186.690414,165.310379 189.123581,166.013672 190.988541,166.009659 
	C202.967468,165.983810 214.946487,166.003403 226.925476,166.007828 
	C228.734238,166.008484 230.542999,166.007904 232.808807,166.007904 
	C235.472336,154.138519 238.074829,142.541214 240.844238,130.200043 
	C225.460251,130.200043 210.458633,130.200043 194.761169,130.200043 
	C196.522354,122.165611 198.108719,114.928757 199.881668,107.350800 
	C224.012817,107.009109 247.957367,107.008522 272.351685,107.044426 
	C267.972900,130.151810 263.144318,153.222687 257.667664,176.635040 
	C233.023758,176.968323 209.027924,176.960114 185.032089,176.951904 
z"/>
<path fill="#F9FEFC" opacity="1.000000" stroke="none" 
	d="
M949.964844,196.935425 
	C954.427795,190.722397 958.890747,184.509384 964.107239,178.142090 
	C1013.845764,178.000198 1062.830811,178.029114 1111.815674,177.943344 
	C1113.252686,177.940826 1114.687500,176.729263 1116.088745,176.041687 
	C1116.054077,176.001968 1116.079224,176.104309 1116.343994,175.948029 
	C1116.689697,175.204056 1116.770508,174.616394 1117.029785,173.697281 
	C1118.588501,169.026031 1119.819946,164.631607 1121.386230,160.359894 
	C1123.466064,154.686600 1125.832886,149.119064 1128.029419,143.487762 
	C1130.694458,136.655487 1133.310547,129.804138 1135.985352,122.995667 
	C1136.022705,123.030281 1136.092773,123.104156 1136.092773,123.104156 
	C1136.063843,128.958023 1136.203857,134.820984 1135.890259,140.659561 
	C1135.808960,142.171234 1134.600464,143.929108 1133.404297,145.019501 
	C1128.912720,149.114090 1127.814819,154.128082 1131.031372,160.184280 
	C1128.305908,162.863480 1125.270020,165.615402 1122.540649,168.643539 
	C1121.425171,169.881210 1120.657959,171.645691 1120.286377,173.295319 
	C1119.581909,176.422607 1122.930542,180.267899 1118.555786,182.910706 
	C1118.323608,183.051010 1119.445312,185.432571 1120.336792,187.860123 
	C1117.763062,187.672775 1115.342041,188.221191 1113.926514,187.271393 
	C1106.792236,182.484375 1099.283936,182.253754 1090.888062,182.732285 
	C1074.784424,183.650192 1058.591187,182.998398 1042.435181,183.002869 
	C1041.270264,183.003189 1040.068970,182.880341 1038.954102,183.128052 
	C1038.288818,183.275894 1037.212158,184.410797 1037.248657,184.463806 
	C1038.141724,185.762726 1039.159424,186.975845 1039.939575,187.938614 
	C1038.062988,189.627380 1035.994019,191.489227 1032.938965,194.238419 
	C1035.495361,194.632812 1036.683716,194.973129 1037.872803,194.975830 
	C1053.529175,195.011383 1069.186279,195.088089 1084.841553,194.952972 
	C1090.630615,194.903000 1096.419678,194.385468 1102.197510,193.935822 
	C1103.221069,193.856155 1104.440552,193.294479 1105.135620,192.550186 
	C1107.298218,190.234619 1108.700317,190.898499 1110.182373,193.278732 
	C1111.491943,195.381943 1113.078979,197.232819 1115.716919,194.589386 
	C1115.772705,194.533386 1118.762695,196.920914 1118.606201,197.211746 
	C1116.798706,200.569839 1116.406738,203.694504 1118.848389,206.916870 
	C1119.078857,207.221207 1118.576416,208.081070 1118.409424,208.700836 
	C1110.437134,205.876785 1105.113892,209.529602 1105.057251,217.890747 
	C1105.032471,221.542755 1104.449341,222.531555 1100.072021,223.459076 
	C1093.049316,224.947113 1087.639526,220.805908 1081.165527,220.849976 
	C1037.862671,221.144775 994.556702,220.972076 951.252014,221.077103 
	C948.765137,221.083130 946.231323,222.040787 943.805298,222.822464 
	C938.022705,224.685699 932.485718,225.279160 926.317017,223.532791 
	C921.781555,222.248795 916.578613,223.513382 911.703857,223.185257 
	C906.542786,222.837860 901.418091,221.949814 896.061157,220.953979 
	C899.889282,220.003387 903.933716,219.396744 908.868896,218.856445 
	C939.038208,219.285217 968.315918,219.808914 997.595520,219.967438 
	C1030.927246,220.147934 1064.260864,220.031830 1097.593140,219.911835 
	C1099.254150,219.905853 1101.972656,219.028366 1102.394531,217.888870 
	C1104.873535,211.190475 1106.816528,204.293732 1109.104370,196.935425 
	C1055.598755,196.935425 1002.781799,196.935425 949.964844,196.935425 
M1028.102905,182.400101 
	C1024.993652,180.143326 1021.991699,181.272827 1020.413086,183.910110 
	C1019.433044,185.547333 1019.664978,188.796494 1020.685059,190.545090 
	C1022.388184,193.464630 1025.540405,194.013382 1028.347656,191.677124 
	C1031.574341,188.991913 1031.900269,185.905670 1028.102905,182.400101 
z"/>
<path fill="#5E9ED7" opacity="1.000000" stroke="none" 
	d="
M616.168640,177.952850 
	C612.015930,167.474442 606.717651,158.315063 594.769287,153.080200 
	C619.584717,146.572586 636.897705,134.380783 639.119568,107.459656 
	C645.552856,107.035835 651.916382,107.029396 658.758301,107.122345 
	C656.359741,115.111496 652.942627,122.852654 650.721680,130.922974 
	C646.525513,146.170853 646.714050,161.665863 649.867981,177.527451 
	C638.788696,177.945816 627.722961,177.970093 616.168640,177.952850 
z"/>
<path fill="#5E9ED7" opacity="1.000000" stroke="none" 
	d="
M793.567078,177.914871 
	C796.087463,168.051712 799.839233,158.395584 801.834839,148.389236 
	C804.214905,136.455597 803.886780,124.255013 801.149841,112.250870 
	C800.856323,110.963661 800.861023,109.608467 800.738281,107.876778 
	C811.458252,107.316589 822.167236,107.164429 833.320923,107.063690 
	C828.854614,130.487000 823.943542,153.858902 818.917969,177.607056 
	C810.542664,177.977844 802.281738,177.972351 793.567078,177.914871 
z"/>
<path fill="#F9FEFC" opacity="1.000000" stroke="none" 
	d="
M972.839111,107.234901 
	C971.810913,104.791016 970.782715,102.347130 969.674133,99.539284 
	C972.555664,96.873657 975.224121,94.875862 977.857483,99.921539 
	C978.542908,101.234840 981.534668,101.879234 983.482117,101.910919 
	C994.706360,102.093521 1005.935181,101.999985 1017.162415,102.000000 
	C1026.978149,102.000015 1036.795898,101.879509 1046.608887,102.042725 
	C1053.058228,102.149994 1059.503418,102.991188 1065.945557,102.935509 
	C1081.542969,102.800697 1097.136597,102.199341 1112.734009,102.064461 
	C1119.176147,102.008751 1125.622070,102.791153 1132.071533,102.913300 
	C1133.720581,102.944542 1135.829834,102.377335 1136.975098,101.291412 
	C1142.566772,95.990143 1144.225830,95.908203 1149.135742,101.637291 
	C1149.914429,100.120239 1150.658081,98.671371 1151.633667,96.770729 
	C1153.179810,101.054993 1152.066284,102.751465 1148.413940,103.597305 
	C1146.766724,103.978775 1145.309570,105.179802 1143.987427,106.937981 
	C1148.751587,106.160316 1151.630493,107.388466 1152.689209,112.294830 
	C1152.073242,112.575195 1151.194702,112.718315 1150.726807,113.233994 
	C1149.012329,115.123573 1143.561279,110.924088 1144.485718,117.225075 
	C1144.891235,119.989059 1144.517700,122.892548 1144.274780,125.713478 
	C1144.183350,126.775551 1143.461182,127.783325 1143.026611,128.815826 
	C1142.057007,128.125916 1140.445312,127.583191 1140.246704,126.716583 
	C1139.781128,124.685524 1139.869263,122.606613 1136.486572,123.071091 
	C1136.092773,123.104156 1136.022705,123.030281 1136.018188,122.607483 
	C1137.623657,117.284264 1139.233643,112.383850 1141.005493,106.990707 
	C1138.592041,106.990707 1136.780884,106.990707 1134.969727,106.990707 
	C1083.746948,106.990730 1032.524048,106.986900 981.301208,107.001205 
	C978.480530,107.001991 975.659790,107.153526 972.839111,107.234901 
z"/>
<path fill="#649CCD" opacity="1.000000" stroke="none" 
	d="
M547.507019,178.070465 
	C547.240662,176.610504 547.348572,175.116119 547.655518,173.663773 
	C549.215759,166.282318 551.271484,164.998642 557.959229,168.773239 
	C561.185486,170.594223 563.354187,174.289047 566.017944,177.481491 
	C560.013794,177.903549 553.993408,177.979492 547.507019,178.070465 
z"/>
<path fill="#709BB8" opacity="1.000000" stroke="none" 
	d="
M48.614502,176.130280 
	C51.005859,176.246307 53.093948,176.926605 55.183830,176.932144 
	C82.466286,177.004517 109.748985,176.981369 137.496460,176.997589 
	C137.982620,177.204498 138.003937,177.396042 137.959778,177.869568 
	C109.600784,178.119965 81.307137,178.114975 53.014053,177.985443 
	C51.444305,177.978271 49.879280,176.939529 48.614502,176.130280 
z"/>
<path fill="#6F9BB7" opacity="1.000000" stroke="none" 
	d="
M428.585693,171.019897 
	C428.220032,176.553619 432.035614,177.003250 436.347778,176.997314 
	C457.239349,176.968552 478.130951,176.977448 499.486938,176.978729 
	C499.976410,177.184067 500.001526,177.383698 499.957703,177.877808 
	C475.938019,178.129761 451.987335,178.087280 427.576660,178.069778 
	C427.524719,175.834732 427.932739,173.574707 428.585693,171.019897 
z"/>
<path fill="#6F9AB6" opacity="1.000000" stroke="none" 
	d="
M306.478546,171.807465 
	C306.576904,175.731293 308.466827,177.118774 312.769501,177.077682 
	C334.842651,176.866882 356.918793,176.970825 379.455383,176.966919 
	C379.943909,177.164001 379.970917,177.358948 379.941223,177.843842 
	C355.253235,178.107635 330.621857,178.081497 305.525757,178.065308 
	C305.449219,176.083145 305.837433,174.091034 306.478546,171.807465 
z"/>
<path fill="#6F9AB6" opacity="1.000000" stroke="none" 
	d="
M184.959351,177.191833 
	C209.027924,176.960114 233.023758,176.968323 257.483521,176.978531 
	C257.971558,177.169922 257.995728,177.359283 257.955627,177.827728 
	C233.875443,178.071976 209.859482,178.037140 185.366852,177.967743 
	C184.888992,177.766037 184.887802,177.598892 184.959351,177.191833 
z"/>
<path fill="#F9FEFC" opacity="1.000000" stroke="none" 
	d="
M1133.492188,151.665359 
	C1134.036377,152.010284 1134.362793,152.570404 1134.689209,153.130554 
	C1134.410156,153.258118 1134.131104,153.385651 1133.852051,153.513153 
	C1133.659546,152.968948 1133.467041,152.424759 1133.492188,151.665359 
z"/>
<path fill="#709BB8" opacity="1.000000" stroke="none" 
	d="
M49.718285,172.924896 
	C49.833691,173.117645 49.694893,173.431091 49.340778,173.892792 
	C49.238338,173.709229 49.351212,173.377396 49.718285,172.924896 
z"/>
<path fill="#709BB8" opacity="1.000000" stroke="none" 
	d="
M50.708805,170.925110 
	C50.815624,171.104431 50.682964,171.421112 50.335384,171.887451 
	C50.236755,171.712234 50.353039,171.387360 50.708805,170.925110 
z"/>
<path fill="#F9FEFC" opacity="1.000000" stroke="none" 
	d="
M901.533081,224.551025 
	C901.476746,224.584869 901.589355,224.517166 901.533081,224.551025 
z"/>
<path fill="#5D9ED9" opacity="1.000000" stroke="none" 
	d="
M972.843994,107.647034 
	C975.659790,107.153526 978.480530,107.001991 981.301208,107.001205 
	C1032.524048,106.986900 1083.746948,106.990730 1134.969727,106.990707 
	C1136.780884,106.990707 1138.592041,106.990707 1141.005493,106.990707 
	C1139.233643,112.383850 1137.623657,117.284264 1135.980835,122.572861 
	C1133.310547,129.804138 1130.694458,136.655487 1128.029419,143.487762 
	C1125.832886,149.119064 1123.466064,154.686600 1121.386230,160.359894 
	C1119.819946,164.631607 1118.588501,169.026031 1116.804688,173.885727 
	C1116.293945,174.971832 1116.186523,175.538071 1116.079224,176.104309 
	C1116.079224,176.104309 1116.054077,176.001968 1115.644043,176.013672 
	C1112.286011,176.345642 1109.338379,176.941147 1106.390015,176.944946 
	C1061.186890,177.003204 1015.983704,176.996628 970.780579,176.941269 
	C968.846375,176.938904 966.913025,176.320023 964.979248,175.988342 
	C972.757141,159.093201 976.113342,141.346634 974.901917,122.801170 
	C974.579407,117.863533 973.552490,112.971916 972.843994,107.647034 
M1059.340576,143.672363 
	C1060.186768,142.700409 1060.881836,141.511719 1061.907227,140.796600 
	C1065.143921,138.539612 1067.336304,135.823853 1066.351929,131.636414 
	C1065.326904,127.276016 1062.112793,125.361565 1057.958862,125.106773 
	C1053.809082,124.852249 1049.628296,124.871681 1045.475342,125.070869 
	C1044.480591,125.118576 1042.878296,126.203049 1042.680420,127.068085 
	C1040.442139,136.848846 1038.423218,146.679779 1036.203125,157.170227 
	C1039.834961,156.946014 1044.131958,157.796448 1045.073242,156.394180 
	C1047.136475,153.320984 1047.499268,149.106171 1048.677979,144.926682 
	C1053.741455,147.614243 1052.022461,152.943375 1053.630615,156.755508 
	C1056.945190,156.755508 1060.043823,156.755508 1064.071045,156.755508 
	C1062.535034,152.216522 1061.173462,148.192810 1059.340576,143.672363 
M1011.571533,156.633957 
	C1015.867554,155.112274 1019.426758,152.832047 1019.887390,147.780426 
	C1020.372620,142.459427 1017.151306,139.560699 1012.822632,137.474762 
	C1012.525085,137.331360 1012.157471,137.198135 1011.988037,136.947968 
	C1011.307312,135.943359 1010.691772,134.894592 1010.052124,133.862137 
	C1011.275696,133.248047 1012.541443,132.058182 1013.713806,132.143875 
	C1015.918030,132.305023 1018.068359,133.202713 1020.598633,133.891464 
	C1021.127869,131.333435 1021.581848,129.139450 1022.229004,126.011795 
	C1017.553650,125.662331 1013.481018,124.942116 1009.459473,125.160744 
	C1004.231445,125.444962 1000.080322,129.238968 999.281067,133.953812 
	C998.413574,139.070648 1001.532776,141.909943 1005.586609,144.143311 
	C1007.109375,144.982239 1008.459595,146.134354 1010.224731,147.381210 
	C1005.632446,152.518234 1001.694336,148.117203 997.589050,147.426697 
	C997.106506,149.768555 996.649109,151.988510 995.895203,155.647064 
	C1001.150024,156.065445 1005.954773,156.447998 1011.571533,156.633957 
M1089.916504,125.006523 
	C1088.953247,126.319771 1087.489258,127.505440 1087.116455,128.969086 
	C1085.728149,134.420349 1084.640503,139.951553 1083.553955,145.475159 
	C1082.839844,149.105148 1082.320801,152.773529 1081.621216,156.985214 
	C1087.350098,156.985214 1092.171631,156.656158 1096.927856,157.072647 
	C1102.277466,157.541077 1102.984985,154.684555 1102.739990,150.201141 
	C1099.501221,150.054596 1096.417236,149.915085 1092.706543,149.747192 
	C1094.288086,141.437347 1095.786011,133.566284 1097.418823,124.986435 
	C1094.689819,124.986435 1092.744263,124.986435 1089.916504,125.006523 
M1030.421509,156.175156 
	C1033.760376,152.387680 1033.524902,149.169205 1029.558594,148.423538 
	C1027.584839,148.052505 1024.994141,148.795670 1023.306458,149.948380 
	C1022.405701,150.563629 1022.202759,154.286850 1022.772583,154.594849 
	C1024.846680,155.715897 1027.379517,155.988220 1030.421509,156.175156 
M1066.168701,151.813705 
	C1065.663452,155.323349 1067.875000,156.959686 1070.720459,156.819809 
	C1072.670776,156.723923 1074.949585,155.362137 1076.272217,153.855637 
	C1076.916748,153.121506 1075.940918,149.480148 1075.300781,149.364960 
	C1072.803223,148.915512 1070.140015,149.279739 1067.556030,149.525864 
	C1067.137085,149.565765 1066.807251,150.539398 1066.168701,151.813705 
z"/>
<path fill="#5E9FD8" opacity="1.000000" stroke="none" 
	d="
M949.651001,197.059723 
	C1002.781799,196.935425 1055.598755,196.935425 1109.104370,196.935425 
	C1106.816528,204.293732 1104.873535,211.190475 1102.394531,217.888870 
	C1101.972656,219.028366 1099.254150,219.905853 1097.593140,219.911835 
	C1064.260864,220.031830 1030.927246,220.147934 997.595520,219.967438 
	C968.315918,219.808914 939.038208,219.285217 909.292236,218.796387 
	C921.852966,214.931763 934.288635,209.977921 944.806458,201.100983 
	C946.332031,199.813477 947.827637,198.490524 949.651001,197.059723 
z"/>
<path fill="#5D9ED9" opacity="1.000000" stroke="none" 
	d="
M866.098206,177.981461 
	C870.953491,154.551224 875.808716,131.120972 881.301270,107.349762 
	C892.533691,106.955673 903.128906,106.902550 913.724060,106.849419 
	C920.655151,110.313522 923.800537,116.584785 924.641602,123.665382 
	C926.288025,137.526672 925.828735,151.424622 918.092896,163.631912 
	C914.540039,169.238235 909.222412,173.726135 904.096191,178.483124 
	C891.024292,178.157150 878.561218,178.069305 866.098206,177.981461 
z"/>
<path fill="#F4FAF9" opacity="1.000000" stroke="none" 
	d="
M865.934204,178.362396 
	C878.561218,178.069305 891.024292,178.157150 903.776245,178.558533 
	C891.868347,186.399704 878.361938,185.014694 864.585144,184.930771 
	C865.028992,182.613190 865.399597,180.678253 865.934204,178.362396 
z"/>
<path fill="#709BB8" opacity="1.000000" stroke="none" 
	d="
M964.739624,176.147736 
	C966.913025,176.320023 968.846375,176.938904 970.780579,176.941269 
	C1015.983704,176.996628 1061.186890,177.003204 1106.390015,176.944946 
	C1109.338379,176.941147 1112.286011,176.345642 1115.678711,176.053406 
	C1114.687500,176.729263 1113.252686,177.940826 1111.815674,177.943344 
	C1062.830811,178.029114 1013.845764,178.000198 964.387939,177.944183 
	C964.110046,177.369400 964.304993,176.838257 964.739624,176.147736 
z"/>
<path fill="#F3FBFA" opacity="1.000000" stroke="none" 
	d="
M913.563904,106.562553 
	C903.128906,106.902550 892.533691,106.955673 881.469971,107.004761 
	C880.322998,103.067093 881.965393,101.844185 885.905151,101.912132 
	C895.305176,102.074257 904.753723,101.528282 913.563904,106.562553 
z"/>
<path fill="#5D9ED9" opacity="1.000000" stroke="none" 
	d="
M704.845398,178.005157 
	C699.327271,173.718231 698.030579,167.408813 697.579895,161.126755 
	C696.277710,142.973312 699.388977,125.949394 712.265076,112.005524 
	C714.132202,109.983604 716.705811,108.614128 719.784546,106.966492 
	C727.752258,106.958290 734.887878,106.926315 742.023560,106.894348 
	C744.875244,109.971123 748.718384,112.584915 750.408386,116.204140 
	C758.068665,132.609116 751.648926,167.159866 735.808105,177.950531 
	C724.959167,178.043915 714.902283,178.024536 704.845398,178.005157 
z"/>
<path fill="#F0F7F8" opacity="1.000000" stroke="none" 
	d="
M704.956787,178.342682 
	C714.902283,178.024536 724.959167,178.043915 735.480957,178.048462 
	C727.338074,185.848175 713.831909,186.130997 704.956787,178.342682 
z"/>
<path fill="#E9F6F6" opacity="1.000000" stroke="none" 
	d="
M741.836426,106.580803 
	C734.887878,106.926315 727.752258,106.958290 720.122742,106.933296 
	C726.859436,102.709877 734.221924,103.314575 741.836426,106.580803 
z"/>
<path fill="#5E9DD6" opacity="1.000000" stroke="none" 
	d="
M587.480835,106.983414 
	C592.105225,118.162056 586.144470,130.270447 574.156189,132.871201 
	C568.432312,134.112900 562.397583,133.921387 555.776062,134.435562 
	C557.914734,124.777107 559.809326,116.221062 562.345886,107.335907 
	C571.152222,106.999008 579.316528,106.991211 587.480835,106.983414 
z"/>
<path fill="#F6FAF8" opacity="1.000000" stroke="none" 
	d="
M587.405396,106.618317 
	C579.316528,106.991211 571.152222,106.999008 562.523987,106.985687 
	C563.115540,97.925224 563.115662,97.914780 571.836487,97.997238 
	C578.426392,98.059555 584.246338,99.596680 587.405396,106.618317 
z"/>
<path fill="#6F9AB6" opacity="1.000000" stroke="none" 
	d="
M186.559662,168.906494 
	C186.694702,169.916382 186.589920,171.233398 186.164368,172.786179 
	C186.002335,171.752502 186.161087,170.483063 186.559662,168.906494 
z"/>
<path fill="#6F9AB6" opacity="1.000000" stroke="none" 
	d="
M380.450470,175.084442 
	C380.602325,173.078064 381.001556,170.775558 381.703430,168.256775 
	C381.570007,170.289780 381.133911,172.539047 380.450470,175.084442 
z"/>
<path fill="#F7F83C" opacity="1.000000" stroke="none" 
	d="
M1028.416382,182.603500 
	C1031.900269,185.905670 1031.574341,188.991913 1028.347656,191.677124 
	C1025.540405,194.013382 1022.388184,193.464630 1020.685059,190.545090 
	C1019.664978,188.796494 1019.433044,185.547333 1020.413086,183.910110 
	C1021.991699,181.272827 1024.993652,180.143326 1028.416382,182.603500 
z"/>
<path fill="#709BB8" opacity="1.000000" stroke="none" 
	d="
M1116.343994,175.948029 
	C1116.186523,175.538071 1116.293945,174.971832 1116.626465,174.217163 
	C1116.770508,174.616394 1116.689697,175.204056 1116.343994,175.948029 
z"/>
<path fill="#384147" opacity="1.000000" stroke="none" 
	d="
M1059.576172,143.920715 
	C1061.173462,148.192810 1062.535034,152.216522 1064.071045,156.755508 
	C1060.043823,156.755508 1056.945190,156.755508 1053.630615,156.755508 
	C1052.022461,152.943375 1053.741455,147.614243 1048.677979,144.926682 
	C1047.499268,149.106171 1047.136475,153.320984 1045.073242,156.394180 
	C1044.131958,157.796448 1039.834961,156.946014 1036.203125,157.170227 
	C1038.423218,146.679779 1040.442139,136.848846 1042.680420,127.068085 
	C1042.878296,126.203049 1044.480591,125.118576 1045.475342,125.070869 
	C1049.628296,124.871681 1053.809082,124.852249 1057.958862,125.106773 
	C1062.112793,125.361565 1065.326904,127.276016 1066.351929,131.636414 
	C1067.336304,135.823853 1065.143921,138.539612 1061.907227,140.796600 
	C1060.881836,141.511719 1060.186768,142.700409 1059.576172,143.920715 
M1054.818848,131.667770 
	C1050.718750,131.065796 1049.943359,132.261383 1050.433350,138.429962 
	C1055.563843,138.887024 1056.562622,137.640869 1054.818848,131.667770 
z"/>
<path fill="#38414A" opacity="1.000000" stroke="none" 
	d="
M1011.165527,156.732239 
	C1005.954773,156.447998 1001.150024,156.065445 995.895203,155.647064 
	C996.649109,151.988510 997.106506,149.768555 997.589050,147.426697 
	C1001.694336,148.117203 1005.632446,152.518234 1010.224731,147.381210 
	C1008.459595,146.134354 1007.109375,144.982239 1005.586609,144.143311 
	C1001.532776,141.909943 998.413574,139.070648 999.281067,133.953812 
	C1000.080322,129.238968 1004.231445,125.444962 1009.459473,125.160744 
	C1013.481018,124.942116 1017.553650,125.662331 1022.229004,126.011795 
	C1021.581848,129.139450 1021.127869,131.333435 1020.598633,133.891464 
	C1018.068359,133.202713 1015.918030,132.305023 1013.713806,132.143875 
	C1012.541443,132.058182 1011.275696,133.248047 1010.052124,133.862122 
	C1010.691772,134.894592 1011.307312,135.943359 1011.988037,136.947968 
	C1012.157471,137.198135 1012.525085,137.331360 1012.822632,137.474762 
	C1017.151306,139.560699 1020.372620,142.459427 1019.887390,147.780426 
	C1019.426758,152.832047 1015.867554,155.112274 1011.165527,156.732239 
z"/>
<path fill="#384047" opacity="1.000000" stroke="none" 
	d="
M1090.357666,124.996475 
	C1092.744263,124.986435 1094.689819,124.986435 1097.418823,124.986435 
	C1095.786011,133.566284 1094.288086,141.437347 1092.706543,149.747192 
	C1096.417236,149.915085 1099.501221,150.054596 1102.739990,150.201141 
	C1102.984985,154.684555 1102.277466,157.541077 1096.927856,157.072647 
	C1092.171631,156.656158 1087.350098,156.985214 1081.621216,156.985214 
	C1082.320801,152.773529 1082.839844,149.105148 1083.553955,145.475159 
	C1084.640503,139.951553 1085.728149,134.420349 1087.116455,128.969086 
	C1087.489258,127.505440 1088.953247,126.319771 1090.357666,124.996475 
z"/>
<path fill="#36434F" opacity="1.000000" stroke="none" 
	d="
M1030.080444,156.377838 
	C1027.379517,155.988220 1024.846680,155.715897 1022.772583,154.594849 
	C1022.202759,154.286850 1022.405701,150.563629 1023.306458,149.948380 
	C1024.994141,148.795670 1027.584839,148.052505 1029.558594,148.423538 
	C1033.524902,149.169205 1033.760376,152.387680 1030.080444,156.377838 
z"/>
<path fill="#344452" opacity="1.000000" stroke="none" 
	d="
M1066.302490,151.447571 
	C1066.807251,150.539398 1067.137085,149.565765 1067.556030,149.525864 
	C1070.140015,149.279739 1072.803223,148.915512 1075.300781,149.364960 
	C1075.940918,149.480148 1076.916748,153.121506 1076.272217,153.855637 
	C1074.949585,155.362137 1072.670776,156.723923 1070.720459,156.819809 
	C1067.875000,156.959686 1065.663452,155.323349 1066.302490,151.447571 
z"/>
<path fill="#6799C7" opacity="1.000000" stroke="none" 
	d="
M1055.118530,131.938950 
	C1056.562622,137.640869 1055.563843,138.887024 1050.433350,138.429962 
	C1049.943359,132.261383 1050.718750,131.065796 1055.118530,131.938950 
z"/>
</svg>